# xmcd
#
# Track frame offsets: 
#        150
#        26875
#        44240
#        61473
#        75565
#        95358
#        113993
#        130740
#        156180
#        171255
#        188145
#        203120
#        229508
#
# Disc length: 3170 seconds
#
# Revision: 4
# Processed by: cddbd v1.5.2PL0 Copyright (c) Steve Scherf et al.
# Submitted via: ExactAudioCopy v0.99pb5
#
DISCID=b00c600d
DTITLE=Hypocrisy - The Fourth Dimension
DYEAR=1994
DGENRE=Death Metal
TTITLE0=Apocalypse
TTITLE1=Mind Corruption
TTITLE2=Reincarnation
TTITLE3=Reborn
TTITLE4=Black Forest
TTITLE5=Never To Return
TTITLE6=Path To Babylon
TTITLE7=Slaughtered
TTITLE8=Orgy In Blood
TTITLE9=The North Wind
TTITLE10=T.E.M.P.T.
TTITLE11=The Fourth Dimension
TTITLE12=The Arrival Of The Demons (Part 1)
EXTD=YEAR: 1994 ID3G: 22
EXTT0=
EXTT1=
EXTT2=
EXTT3=
EXTT4=
EXTT5=
EXTT6=
EXTT7=
EXTT8=
EXTT9=
EXTT10=
EXTT11=
EXTT12=
PLAYORDER=
